<svg xmlns="http://www.w3.org/2000/svg" viewBox="0 0 512 512">
  <defs>
    <linearGradient id="sky" x1="0" y1="0" x2="0" y2="1">
      <stop offset="0" stop-color="#1b1e34"/>
      <stop offset="0.55" stop-color="#232a4a"/>
      <stop offset="1" stop-color="#3a3a5c"/>
    </linearGradient>
    <radialGradient id="glow" cx="0.5" cy="0.5" r="0.5">
      <stop offset="0" stop-color="#ffd88a" stop-opacity="0.9"/>
      <stop offset="1" stop-color="#ffd88a" stop-opacity="0"/>
    </radialGradient>
  </defs>
  <!-- maskable-safe: all meaning stays within the central ~80% -->
  <rect width="512" height="512" fill="url(#sky)"/>
  <!-- scattered stars -->
  <g fill="#e9ecff">
    <circle cx="120" cy="120" r="3"/>
    <circle cx="392" cy="96" r="2.5"/>
    <circle cx="430" cy="200" r="3"/>
    <circle cx="86" cy="230" r="2.5"/>
    <circle cx="300" cy="150" r="2"/>
    <circle cx="180" cy="70" r="2"/>
  </g>
  <!-- the target star, riding above the treeline -->
  <circle cx="300" cy="196" r="70" fill="url(#glow)"/>
  <path fill="#ffcf6b" d="M300 150l12 34 36 3-27 24 8 35-29-19-29 19 8-35-27-24 36-3z"/>
  <!-- the measured horizon: a real, uneven treeline (the whole point) -->
  <path fill="#0e1020" d="M0 512V360l26-30 14 22 20-46 22 30 18-58 24 44 22-30 20 40 26-70 22 52 24-32 20 44 24-58 22 40 26-24 22 46 24-40 22 34 24-52 26 44V512z"/>
</svg>
